<svg version="1.1" viewBox="0.0 0.0 600.0 371.0" fill="none" stroke="none" stroke-linecap="square" stroke-miterlimit="10" width="600" height="371" xmlns:xlink="http://www.w3.org/1999/xlink" xmlns="http://www.w3.org/2000/svg"><path fill="#ffffff" d="M0 0L600.0 0L600.0 371.0L0 371.0L0 0Z" fill-rule="nonzero"/><path stroke="#333333" stroke-width="1.0" stroke-linecap="butt" d="M77.5 300.5L581.5 300.5" fill-rule="nonzero"/><path stroke="#cccccc" stroke-width="1.0" stroke-linecap="butt" d="M77.5 238.5L581.5 238.5" fill-rule="nonzero"/><path stroke="#cccccc" stroke-width="1.0" stroke-linecap="butt" d="M77.5 176.5L581.5 176.5" fill-rule="nonzero"/><path stroke="#cccccc" stroke-width="1.0" stroke-linecap="butt" d="M77.5 114.5L581.5 114.5" fill-rule="nonzero"/><path stroke="#cccccc" stroke-width="1.0" stroke-linecap="butt" d="M77.5 51.5L581.5 51.5" fill-rule="nonzero"/><clipPath id="id_0"><path d="M77.55 51.916668L581.45 51.916668L581.45 300.45L77.55 300.45L77.55 51.916668Z" clip-rule="nonzero"/></clipPath><path stroke="#000000" stroke-width="2.0" stroke-linecap="butt" stroke-opacity="0.0" clip-path="url(#id_0)" d="M140.0 300.0L111.0 300.0L111.0 225.0C111.0 223.89543 111.89543 223.0 113.0 223.0L138.0 223.0C139.10457 223.0 140.0 223.89543 140.0 225.0Z" fill-rule="nonzero"/><path fill="#4285f4" clip-path="url(#id_0)" d="M140.0 300.0L111.0 300.0L111.0 225.0C111.0 223.89543 111.89543 223.0 113.0 223.0L138.0 223.0C139.10457 223.0 140.0 223.89543 140.0 225.0Z" fill-rule="nonzero"/><path stroke="#000000" stroke-width="2.0" stroke-linecap="butt" stroke-opacity="0.0" clip-path="url(#id_0)" d="M234.0 300.0L205.0 300.0L205.0 128.0C205.0 126.89543 205.89543 126.0 207.0 126.0L232.0 126.0C233.10457 126.0 234.0 126.89543 234.0 128.0Z" fill-rule="nonzero"/><path fill="#4285f4" clip-path="url(#id_0)" d="M234.0 300.0L205.0 300.0L205.0 128.0C205.0 126.89543 205.89543 126.0 207.0 126.0L232.0 126.0C233.10457 126.0 234.0 126.89543 234.0 128.0Z" fill-rule="nonzero"/><path stroke="#000000" stroke-width="2.0" stroke-linecap="butt" stroke-opacity="0.0" clip-path="url(#id_0)" d="M329.0 300.0L300.0 300.0L300.0 91.0C300.0 89.89543 300.89542 89.0 302.0 89.0L327.0 89.0C328.10458 89.0 329.0 89.89543 329.0 91.0Z" fill-rule="nonzero"/><path fill="#4285f4" clip-path="url(#id_0)" d="M329.0 300.0L300.0 300.0L300.0 91.0C300.0 89.89543 300.89542 89.0 302.0 89.0L327.0 89.0C328.10458 89.0 329.0 89.89543 329.0 91.0Z" fill-rule="nonzero"/><path stroke="#000000" stroke-width="2.0" stroke-linecap="butt" stroke-opacity="0.0" clip-path="url(#id_0)" d="M423.0 300.0L394.0 300.0L394.0 147.0C394.0 145.89543 394.89542 145.0 396.0 145.0L421.0 145.0C422.10458 145.0 423.0 145.89543 423.0 147.0Z" fill-rule="nonzero"/><path fill="#4285f4" clip-path="url(#id_0)" d="M423.0 300.0L394.0 300.0L394.0 147.0C394.0 145.89543 394.89542 145.0 396.0 145.0L421.0 145.0C422.10458 145.0 423.0 145.89543 423.0 147.0Z" fill-rule="nonzero"/><path stroke="#000000" stroke-width="2.0" stroke-linecap="butt" stroke-opacity="0.0" clip-path="url(#id_0)" d="M517.0 300.0L488.0 300.0L488.0 160.0C488.0 158.89543 488.89542 158.0 490.0 158.0L515.0 158.0C516.10455 158.0 517.0 158.89543 517.0 160.0Z" fill-rule="nonzero"/><path fill="#4285f4" clip-path="url(#id_0)" d="M517.0 300.0L488.0 300.0L488.0 160.0C488.0 158.89543 488.89542 158.0 490.0 158.0L515.0 158.0C516.10455 158.0 517.0 158.89543 517.0 160.0Z" fill-rule="nonzero"/><path stroke="#000000" stroke-width="2.0" stroke-linecap="butt" stroke-opacity="0.0" clip-path="url(#id_0)" d="M171.0 300.0L142.0 300.0L142.0 262.0C142.0 260.89542 142.89543 260.0 144.0 260.0L169.0 260.0C170.10457 260.0 171.0 260.89542 171.0 262.0Z" fill-rule="nonzero"/><path fill="#ea4335" clip-path="url(#id_0)" d="M171.0 300.0L142.0 300.0L142.0 262.0C142.0 260.89542 142.89543 260.0 144.0 260.0L169.0 260.0C170.10457 260.0 171.0 260.89542 171.0 262.0Z" fill-rule="nonzero"/><path stroke="#000000" stroke-width="2.0" stroke-linecap="butt" stroke-opacity="0.0" clip-path="url(#id_0)" d="M265.0 300.0L236.0 300.0L236.0 222.0C236.0 220.89543 236.89543 220.0 238.0 220.0L263.0 220.0C264.10458 220.0 265.0 220.89543 265.0 222.0Z" fill-rule="nonzero"/><path fill="#ea4335" clip-path="url(#id_0)" d="M265.0 300.0L236.0 300.0L236.0 222.0C236.0 220.89543 236.89543 220.0 238.0 220.0L263.0 220.0C264.10458 220.0 265.0 220.89543 265.0 222.0Z" fill-rule="nonzero"/><path stroke="#000000" stroke-width="2.0" stroke-linecap="butt" stroke-opacity="0.0" clip-path="url(#id_0)" d="M360.0 300.0L331.0 300.0L331.0 215.0C331.0 213.89543 331.89542 213.0 333.0 213.0L358.0 213.0C359.10458 213.0 360.0 213.89543 360.0 215.0Z" fill-rule="nonzero"/><path fill="#ea4335" clip-path="url(#id_0)" d="M360.0 300.0L331.0 300.0L331.0 215.0C331.0 213.89543 331.89542 213.0 333.0 213.0L358.0 213.0C359.10458 213.0 360.0 213.89543 360.0 215.0Z" fill-rule="nonzero"/><path stroke="#000000" stroke-width="2.0" stroke-linecap="butt" stroke-opacity="0.0" clip-path="url(#id_0)" d="M454.0 300.0L425.0 300.0L425.0 234.0C425.0 232.89543 425.89542 232.0 427.0 232.0L452.0 232.0C453.10458 232.0 454.0 232.89543 454.0 234.0Z" fill-rule="nonzero"/><path fill="#ea4335" clip-path="url(#id_0)" d="M454.0 300.0L425.0 300.0L425.0 234.0C425.0 232.89543 425.89542 232.0 427.0 232.0L452.0 232.0C453.10458 232.0 454.0 232.89543 454.0 234.0Z" fill-rule="nonzero"/><path stroke="#000000" stroke-width="2.0" stroke-linecap="butt" stroke-opacity="0.0" clip-path="url(#id_0)" d="M548.0 300.0L519.0 300.0L519.0 234.0C519.0 232.89543 519.89545 232.0 521.0 232.0L546.0 232.0C547.10455 232.0 548.0 232.89543 548.0 234.0Z" fill-rule="nonzero"/><path fill="#ea4335" clip-path="url(#id_0)" d="M548.0 300.0L519.0 300.0L519.0 234.0C519.0 232.89543 519.89545 232.0 521.0 232.0L546.0 232.0C547.10455 232.0 548.0 232.89543 548.0 234.0Z" fill-rule="nonzero"/><path fill="#000000" d="M298.875 349.45L298.875 340.85626L302.10938 340.85626Q303.09375 340.85626 303.6875 341.1219Q304.28125 341.3875 304.60938 341.9344Q304.95312 342.46564 304.95312 343.0594Q304.95312 343.60626 304.65625 344.09064Q304.35938 344.575 303.75 344.8719Q304.53125 345.10626 304.9375 345.66876Q305.35938 346.21564 305.35938 346.96564Q305.35938 347.5594 305.10938 348.09064Q304.85938 348.60626 304.48438 348.8875Q304.10938 349.16876 303.53125 349.3094Q302.96875 349.45 302.15625 349.45L298.875 349.45ZM300.01562 344.46564L301.875 344.46564Q302.625 344.46564 302.95312 344.3719Q303.39062 344.2469 303.60938 343.95Q303.82812 343.6375 303.82812 343.1844Q303.82812 342.7625 303.625 342.4344Q303.42188 342.10626 303.03125 341.9969Q302.65625 341.8719 301.73438 341.8719L300.01562 341.8719L300.01562 344.46564ZM300.01562 348.4344L302.15625 348.4344Q302.70312 348.4344 302.92188 348.3875Q303.32812 348.325 303.57812 348.16876Q303.84375 347.9969 304.01562 347.6844Q304.1875 347.3719 304.1875 346.96564Q304.1875 346.48126 303.9375 346.1219Q303.70312 345.7625 303.26562 345.6219Q302.82812 345.48126 302.0 345.48126L300.01562 345.48126L300.01562 348.4344ZM311.04688 347.45L312.14062 347.575Q311.89062 348.52814 311.1875 349.0594Q310.48438 349.59064 309.40625 349.59064Q308.04688 349.59064 307.23438 348.7469Q306.4375 347.90314 306.4375 346.3875Q306.4375 344.825 307.25 343.96564Q308.0625 343.09064 309.34375 343.09064Q310.59375 343.09064 311.375 343.9344Q312.17188 344.77814 312.17188 346.325Q312.17188 346.41876 312.17188 346.60626L307.53125 346.60626Q307.59375 347.6375 308.10938 348.1844Q308.625 348.71564 309.40625 348.71564Q309.98438 348.71564 310.39062 348.41876Q310.8125 348.10626 311.04688 347.45ZM307.59375 345.7469L311.0625 345.7469Q311.0 344.95 310.67188 344.5594Q310.15625 343.95 309.35938 343.95Q308.625 343.95 308.125 344.4344Q307.64062 344.91876 307.59375 345.7469ZM313.79688 349.45L313.79688 343.23126L314.73438 343.23126L314.73438 344.10626Q315.42188 343.09064 316.71875 343.09064Q317.28125 343.09064 317.75 343.29376Q318.23438 343.4969 318.46875 343.825Q318.70312 344.15314 318.79688 344.59064Q318.84375 344.8875 318.84375 345.6219L318.84375 349.45L317.79688 349.45L317.79688 345.66876Q317.79688 345.0125 317.67188 344.7Q317.54688 344.3875 317.23438 344.2Q316.92188 343.9969 316.5 343.9969Q315.82812 343.9969 315.32812 344.4344Q314.84375 344.85626 314.84375 346.04376L314.84375 349.45L313.79688 349.45ZM324.85938 347.16876L325.89062 347.3094Q325.71875 348.3719 325.01562 348.98126Q324.3125 349.59064 323.29688 349.59064Q322.01562 349.59064 321.23438 348.7625Q320.46875 347.91876 320.46875 346.35626Q320.46875 345.35626 320.79688 344.60626Q321.14062 343.84064 321.8125 343.46564Q322.5 343.09064 323.3125 343.09064Q324.3125 343.09064 324.95312 343.60626Q325.60938 344.10626 325.79688 345.0594L324.76562 345.21564Q324.625 344.59064 324.25 344.27814Q323.875 343.95 323.34375 343.95Q322.54688 343.95 322.04688 344.52814Q321.54688 345.09064 321.54688 346.325Q321.54688 347.59064 322.03125 348.15314Q322.51562 348.71564 323.28125 348.71564Q323.90625 348.71564 324.3125 348.34064Q324.73438 347.96564 324.85938 347.16876ZM326.79688 349.45L326.79688 340.85626L327.84375 340.85626L327.84375 343.9344Q328.57812 343.09064 329.70312 343.09064Q330.40625 343.09064 330.90625 343.3719Q331.42188 343.6375 331.64062 344.1219Q331.85938 344.59064 331.85938 345.5125L331.85938 349.45L330.8125 349.45L330.8125 345.5125Q330.8125 344.71564 330.46875 344.35626Q330.125 343.9969 329.5 343.9969Q329.03125 343.9969 328.60938 344.2469Q328.20312 344.48126 328.01562 344.90314Q327.84375 345.3094 327.84375 346.04376L327.84375 349.45L326.79688 349.45ZM333.79688 349.45L333.79688 343.23126L334.73438 343.23126L334.73438 344.10626Q335.03125 343.6375 335.51562 343.3719Q336.0 343.09064 336.625 343.09064Q337.3125 343.09064 337.75 343.3719Q338.20312 343.65314 338.375 344.16876Q339.125 343.09064 340.29688 343.09064Q341.23438 343.09064 341.71875 343.60626Q342.21875 344.10626 342.21875 345.1844L342.21875 349.45L341.17188 349.45L341.17188 345.52814Q341.17188 344.90314 341.0625 344.6219Q340.96875 344.34064 340.70312 344.16876Q340.4375 343.9969 340.0625 343.9969Q339.40625 343.9969 338.96875 344.4344Q338.54688 344.8719 338.54688 345.84064L338.54688 349.45L337.48438 349.45L337.48438 345.40314Q337.48438 344.7 337.21875 344.35626Q336.96875 343.9969 336.39062 343.9969Q335.9375 343.9969 335.5625 344.23126Q335.1875 344.46564 335.01562 344.91876Q334.84375 345.3719 334.84375 346.21564L334.84375 349.45L333.79688 349.45ZM348.85938 348.6844Q348.26562 349.1844 347.71875 349.3875Q347.1875 349.59064 346.5625 349.59064Q345.53125 349.59064 344.98438 349.09064Q344.4375 348.59064 344.4375 347.8094Q344.4375 347.35626 344.64062 346.98126Q344.84375 346.59064 345.1875 346.3719Q345.53125 346.1375 345.95312 346.02814Q346.25 345.9344 346.89062 345.85626Q348.15625 345.71564 348.76562 345.4969Q348.76562 345.27814 348.76562 345.23126Q348.76562 344.575 348.46875 344.3094Q348.0625 343.96564 347.26562 343.96564Q346.53125 343.96564 346.17188 344.23126Q345.8125 344.48126 345.64062 345.1375L344.60938 344.9969Q344.75 344.34064 345.07812 343.9344Q345.40625 343.52814 346.01562 343.3094Q346.625 343.09064 347.42188 343.09064Q348.21875 343.09064 348.71875 343.27814Q349.21875 343.46564 349.45312 343.7469Q349.6875 344.02814 349.78125 344.46564Q349.82812 344.73126 349.82812 345.4344L349.82812 346.84064Q349.82812 348.3094 349.89062 348.7Q349.96875 349.09064 350.17188 349.45L349.0625 349.45Q348.90625 349.1219 348.85938 348.6844ZM348.76562 346.325Q348.1875 346.5594 347.04688 346.73126Q346.39062 346.825 346.125 346.95Q345.85938 347.0594 345.70312 347.27814Q345.5625 347.4969 345.5625 347.77814Q345.5625 348.2 345.875 348.48126Q346.20312 348.7625 346.8125 348.7625Q347.42188 348.7625 347.89062 348.4969Q348.375 348.23126 348.59375 347.7625Q348.76562 347.40314 348.76562 346.71564L348.76562 346.325ZM351.78125 349.45L351.78125 343.23126L352.73438 343.23126L352.73438 344.16876Q353.09375 343.5125 353.39062 343.3094Q353.70312 343.09064 354.07812 343.09064Q354.60938 343.09064 355.15625 343.41876L354.79688 344.40314Q354.40625 344.16876 354.03125 344.16876Q353.67188 344.16876 353.39062 344.3875Q353.125 344.59064 353.01562 344.96564Q352.82812 345.52814 352.82812 346.1844L352.82812 349.45L351.78125 349.45ZM355.79688 349.45L355.79688 340.85626L356.85938 340.85626L356.85938 345.7625L359.34375 343.23126L360.71875 343.23126L358.32812 345.52814L360.95312 349.45L359.65625 349.45L357.59375 346.2625L356.85938 346.98126L356.85938 349.45L355.79688 349.45Z" fill-rule="nonzero"/><path fill="#000000" d="M29.550013 220.30833L20.956263 220.30833L20.956263 219.16771L28.534388 219.16771L28.534388 214.93333L29.550013 214.93333L29.550013 220.30833ZM22.175013 213.38646L20.956263 213.38646L20.956263 212.32396L22.175013 212.32396L22.175013 213.38646ZM29.550013 213.38646L23.331263 213.38646L23.331263 212.32396L29.550013 212.32396L29.550013 213.38646ZM29.550013 210.38646L23.331263 210.38646L23.331263 209.44896L24.206263 209.44896Q23.190638 208.76146 23.190638 207.46458Q23.190638 206.90208 23.393763 206.43333Q23.596888 205.94896 23.925013 205.71458Q24.253138 205.48021 24.690638 205.38646Q24.987513 205.33958 25.721888 205.33958L29.550013 205.33958L29.550013 206.38646L25.768763 206.38646Q25.112513 206.38646 24.800013 206.51146Q24.487513 206.63646 24.300013 206.94896Q24.096888 207.26146 24.096888 207.68333Q24.096888 208.35521 24.534388 208.85521Q24.956263 209.33958 26.143763 209.33958L29.550013 209.33958L29.550013 210.38646ZM27.550013 199.13646L27.675013 198.04271Q28.628138 198.29271 29.159388 198.99583Q29.690638 199.69896 29.690638 200.77708Q29.690638 202.13646 28.846888 202.94896Q28.003138 203.74583 26.487513 203.74583Q24.925013 203.74583 24.065638 202.93333Q23.190638 202.12083 23.190638 200.83958Q23.190638 199.58958 24.034388 198.80833Q24.878138 198.01146 26.425013 198.01146Q26.518763 198.01146 26.706263 198.01146L26.706263 202.65208Q27.737513 202.58958 28.284388 202.07396Q28.815638 201.55833 28.815638 200.77708Q28.815638 200.19896 28.518763 199.79271Q28.206263 199.37083 27.550013 199.13646ZM25.846888 202.58958L25.846888 199.12083Q25.050013 199.18333 24.659388 199.51146Q24.050013 200.02708 24.050013 200.82396Q24.050013 201.55833 24.534388 202.05833Q25.018763 202.54271 25.846888 202.58958ZM27.690638 196.80833L27.534388 195.77708Q28.159388 195.68333 28.487513 195.29271Q28.815638 194.88646 28.815638 194.15208Q28.815638 193.43333 28.534388 193.08958Q28.237513 192.73021 27.831263 192.73021Q27.471888 192.73021 27.268763 193.04271Q27.128138 193.26146 26.909388 194.12083Q26.612513 195.27708 26.409388 195.73021Q26.190638 196.16771 25.815638 196.40208Q25.440638 196.63646 24.971888 196.63646Q24.565638 196.63646 24.206263 196.44896Q23.846888 196.26146 23.612513 195.93333Q23.440638 195.68333 23.315638 195.26146Q23.190638 194.83958 23.190638 194.33958Q23.190638 193.62083 23.409388 193.07396Q23.612513 192.51146 23.971888 192.24583Q24.331263 191.98021 24.925013 191.88646L25.065638 192.91771Q24.596888 192.98021 24.331263 193.32396Q24.050013 193.65208 24.050013 194.27708Q24.050013 194.99583 24.300013 195.30833Q24.534388 195.62083 24.862513 195.62083Q25.065638 195.62083 25.221888 195.49583Q25.393763 195.35521 25.503138 195.08958Q25.565638 194.93333 25.768763 194.15208Q26.081263 193.02708 26.268763 192.58958Q26.456263 192.15208 26.815638 191.90208Q27.175013 191.65208 27.721888 191.65208Q28.253138 191.65208 28.721888 191.96458Q29.175013 192.26146 29.440638 192.83958Q29.690638 193.41771 29.690638 194.15208Q29.690638 195.37083 29.190638 196.01146Q28.675013 196.63646 27.690638 196.80833ZM26.440638 186.77708Q24.706263 186.77708 23.878138 185.82396Q23.190638 185.02708 23.190638 183.87083Q23.190638 182.58958 24.034388 181.77708Q24.862513 180.94896 26.346888 180.94896Q27.550013 180.94896 28.237513 181.30833Q28.925013 181.66771 29.315638 182.37083Q29.690638 183.05833 29.690638 183.87083Q29.690638 185.16771 28.862513 185.98021Q28.018763 186.77708 26.440638 186.77708ZM26.440638 185.69896Q27.628138 185.69896 28.221888 185.18333Q28.815638 184.65208 28.815638 183.87083Q28.815638 183.07396 28.221888 182.55833Q27.628138 182.04271 26.409388 182.04271Q25.253138 182.04271 24.659388 182.57396Q24.065638 183.08958 24.065638 183.87083Q24.065638 184.65208 24.659388 185.18333Q25.237513 185.69896 26.440638 185.69896ZM29.550013 179.13646L24.143763 179.13646L24.143763 180.07396L23.331263 180.07396L23.331263 179.13646L22.659388 179.13646Q22.034388 179.13646 21.737513 179.02708Q21.315638 178.87083 21.065638 178.49583Q20.815638 178.10521 20.815638 177.41771Q20.815638 176.96458 20.925013 176.43333L21.831263 176.58958Q21.784388 176.91771 21.784388 177.21458Q21.784388 177.69896 21.987513 177.90208Q22.190638 178.08958 22.753138 178.08958L23.331263 178.08958L23.331263 176.87083L24.143763 176.87083L24.143763 178.08958L29.550013 178.08958L29.550013 179.13646ZM26.534388 167.12083L26.831263 165.99583Q28.221888 166.35521 28.956263 167.27708Q29.690638 168.19896 29.690638 169.54271Q29.690638 170.93333 29.128138 171.80833Q28.565638 172.68333 27.503138 173.13646Q26.425013 173.58958 25.190638 173.58958Q23.846888 173.58958 22.846888 173.07396Q21.846888 172.55833 21.331263 171.62083Q20.815638 170.66771 20.815638 169.52708Q20.815638 168.24583 21.471888 167.37083Q22.128138 166.48021 23.315638 166.13646L23.581263 167.26146Q22.643763 167.55833 22.221888 168.13646Q21.784388 168.69896 21.784388 169.55833Q21.784388 170.54271 22.268763 171.21458Q22.737513 171.87083 23.534388 172.15208Q24.331263 172.41771 25.190638 172.41771Q26.284388 172.41771 27.096888 172.10521Q27.909388 171.77708 28.315638 171.10521Q28.721888 170.43333 28.721888 169.63646Q28.721888 168.68333 28.175013 168.02708Q27.628138 167.35521 26.534388 167.12083ZM26.440638 164.77708Q24.706263 164.77708 23.878138 163.82396Q23.190638 163.02708 23.190638 161.87083Q23.190638 160.58958 24.034388 159.77708Q24.862513 158.94896 26.346888 158.94896Q27.550013 158.94896 28.237513 159.30833Q28.925013 159.66771 29.315638 160.37083Q29.690638 161.05833 29.690638 161.87083Q29.690638 163.16771 28.862513 163.98021Q28.018763 164.77708 26.440638 164.77708ZM26.440638 163.69896Q27.628138 163.69896 28.221888 163.18333Q28.815638 162.65208 28.815638 161.87083Q28.815638 161.07396 28.221888 160.55833Q27.628138 160.04271 26.409388 160.04271Q25.253138 160.04271 24.659388 160.57396Q24.065638 161.08958 24.065638 161.87083Q24.065638 162.65208 24.659388 163.18333Q25.237513 163.69896 26.440638 163.69896ZM29.550013 153.35521L28.768763 153.35521Q29.690638 153.94896 29.690638 155.08958Q29.690638 155.83958 29.284388 156.46458Q28.862513 157.08958 28.128138 157.43333Q27.393763 157.77708 26.440638 157.77708Q25.518763 157.77708 24.753138 157.46458Q23.987513 157.15208 23.596888 156.52708Q23.190638 155.90208 23.190638 155.13646Q23.190638 154.57396 23.425013 154.13646Q23.659388 153.69896 24.034388 153.41771L20.956263 153.41771L20.956263 152.37083L29.550013 152.37083L29.550013 153.35521ZM26.440638 156.68333Q27.643763 156.68333 28.237513 156.18333Q28.815638 155.68333 28.815638 154.99583Q28.815638 154.30833 28.253138 153.82396Q27.690638 153.33958 26.534388 153.33958Q25.253138 153.33958 24.659388 153.83958Q24.065638 154.32396 24.065638 155.04271Q24.065638 155.74583 24.643763 156.21458Q25.206263 156.68333 26.440638 156.68333ZM27.550013 146.13646L27.675013 145.04271Q28.628138 145.29271 29.159388 145.99583Q29.690638 146.69896 29.690638 147.77708Q29.690638 149.13646 28.846888 149.94896Q28.003138 150.74583 26.487513 150.74583Q24.925013 150.74583 24.065638 149.93333Q23.190638 149.12083 23.190638 147.83958Q23.190638 146.58958 24.034388 145.80833Q24.878138 145.01146 26.425013 145.01146Q26.518763 145.01146 26.706263 145.01146L26.706263 149.65208Q27.737513 149.58958 28.284388 149.07396Q28.815638 148.55833 28.815638 147.77708Q28.815638 147.19896 28.518763 146.79271Q28.206263 146.37083 27.550013 146.13646ZM25.846888 149.58958L25.846888 146.12083Q25.050013 146.18333 24.659388 146.51146Q24.050013 147.02708 24.050013 147.82396Q24.050013 148.55833 24.534388 149.05833Q25.018763 149.54271 25.846888 149.58958Z" fill-rule="nonzero"/><path fill="#000000" d="M65.05 300.21564Q65.05 298.6844 65.3625 297.7625Q65.675 296.825 66.28438 296.325Q66.90938 295.825 67.84688 295.825Q68.53438 295.825 69.05 296.10626Q69.58125 296.3875 69.925 296.91876Q70.26875 297.4344 70.45625 298.1844Q70.64375 298.9344 70.64375 300.21564Q70.64375 301.73126 70.33125 302.65314Q70.03438 303.575 69.40938 304.09064Q68.8 304.59064 67.84688 304.59064Q66.6125 304.59064 65.89375 303.7Q65.05 302.6375 65.05 300.21564ZM66.12813 300.21564Q66.12813 302.325 66.62813 303.02814Q67.12813 303.73126 67.84688 303.73126Q68.58125 303.73126 69.06563 303.02814Q69.56563 302.325 69.56563 300.21564Q69.56563 298.09064 69.06563 297.40314Q68.58125 296.7 67.83125 296.7Q67.1125 296.7 66.675 297.3094Q66.12813 298.09064 66.12813 300.21564Z" fill-rule="nonzero"/><path fill="#000000" d="M63.596874 241.30104L63.596874 242.31667L57.909374 242.31667Q57.909374 241.94167 58.034374 241.58229Q58.253124 241.00417 58.721874 240.44167Q59.20625 239.87917 60.1125 239.14479Q61.51875 237.98854 62.003124 237.31667Q62.503124 236.64479 62.503124 236.05104Q62.503124 235.42604 62.05 235.00417Q61.596874 234.56667 60.878124 234.56667Q60.1125 234.56667 59.659374 235.01979Q59.20625 235.47292 59.190624 236.28542L58.1125 236.17604Q58.221874 234.95729 58.940624 234.33229Q59.675 233.69167 60.909374 233.69167Q62.14375 233.69167 62.8625 234.37917Q63.58125 235.06667 63.58125 236.08229Q63.58125 236.59792 63.3625 237.09792Q63.159374 237.58229 62.659374 238.14479Q62.175 238.69167 61.05 239.64479Q60.096874 240.44167 59.815624 240.73854Q59.55 241.01979 59.378124 241.30104L63.596874 241.30104ZM65.05 238.08229Q65.05 236.55104 65.3625 235.62917Q65.675 234.69167 66.28438 234.19167Q66.90938 233.69167 67.84688 233.69167Q68.53438 233.69167 69.05 233.97292Q69.58125 234.25417 69.925 234.78542Q70.26875 235.30104 70.45625 236.05104Q70.64375 236.80104 70.64375 238.08229Q70.64375 239.59792 70.33125 240.51979Q70.03438 241.44167 69.40938 241.95729Q68.8 242.45729 67.84688 242.45729Q66.6125 242.45729 65.89375 241.56667Q65.05 240.50417 65.05 238.08229ZM66.12813 238.08229Q66.12813 240.19167 66.62813 240.89479Q67.12813 241.59792 67.84688 241.59792Q68.58125 241.59792 69.06563 240.89479Q69.56563 240.19167 69.56563 238.08229Q69.56563 235.95729 69.06563 235.26979Q68.58125 234.56667 67.83125 234.56667Q67.1125 234.56667 66.675 235.17604Q66.12813 235.95729 66.12813 238.08229Z" fill-rule="nonzero"/><path fill="#000000" d="M61.425 180.18333L61.425 178.12083L57.70625 178.12083L57.70625 177.15208L61.628124 171.58958L62.4875 171.58958L62.4875 177.15208L63.64375 177.15208L63.64375 178.12083L62.4875 178.12083L62.4875 180.18333L61.425 180.18333ZM61.425 177.15208L61.425 173.29271L58.7375 177.15208L61.425 177.15208ZM65.05 175.94896Q65.05 174.41771 65.3625 173.49583Q65.675 172.55833 66.28438 172.05833Q66.90938 171.55833 67.84688 171.55833Q68.53438 171.55833 69.05 171.83958Q69.58125 172.12083 69.925 172.65208Q70.26875 173.16771 70.45625 173.91771Q70.64375 174.66771 70.64375 175.94896Q70.64375 177.46458 70.33125 178.38646Q70.03438 179.30833 69.40938 179.82396Q68.8 180.32396 67.84688 180.32396Q66.6125 180.32396 65.89375 179.43333Q65.05 178.37083 65.05 175.94896ZM66.12813 175.94896Q66.12813 178.05833 66.62813 178.76146Q67.12813 179.46458 67.84688 179.46458Q68.58125 179.46458 69.06563 178.76146Q69.56563 178.05833 69.56563 175.94896Q69.56563 173.82396 69.06563 173.13646Q68.58125 172.43333 67.83125 172.43333Q67.1125 172.43333 66.675 173.04271Q66.12813 173.82396 66.12813 175.94896Z" fill-rule="nonzero"/><path fill="#000000" d="M63.51875 111.56563L62.471874 111.64375Q62.33125 111.01875 62.08125 110.7375Q61.64375 110.28438 61.01875 110.28438Q60.51875 110.28438 60.128124 110.56563Q59.64375 110.94063 59.346874 111.64375Q59.065624 112.33125 59.05 113.6125Q59.425 113.03438 59.971874 112.75313Q60.534374 112.47188 61.14375 112.47188Q62.190624 112.47188 62.925 113.25313Q63.675 114.03438 63.675 115.25313Q63.675 116.06563 63.315624 116.76875Q62.971874 117.45625 62.3625 117.83125Q61.753124 118.19063 60.9875 118.19063Q59.659374 118.19063 58.83125 117.22188Q58.003124 116.25313 58.003124 114.03438Q58.003124 111.53438 58.925 110.40938Q59.721874 109.425 61.08125 109.425Q62.096874 109.425 62.7375 110.00313Q63.39375 110.56563 63.51875 111.56563ZM59.221874 115.26875Q59.221874 115.81563 59.440624 116.31563Q59.675 116.8 60.08125 117.06563Q60.503124 117.33125 60.971874 117.33125Q61.628124 117.33125 62.1125 116.8Q62.596874 116.25313 62.596874 115.33125Q62.596874 114.44063 62.1125 113.925Q61.64375 113.40938 60.925 113.40938Q60.20625 113.40938 59.70625 113.925Q59.221874 114.44063 59.221874 115.26875ZM65.05 113.81563Q65.05 112.28438 65.3625 111.3625Q65.675 110.425 66.28438 109.925Q66.90938 109.425 67.84688 109.425Q68.53438 109.425 69.05 109.70625Q69.58125 109.9875 69.925 110.51875Q70.26875 111.03438 70.45625 111.78438Q70.64375 112.53438 70.64375 113.81563Q70.64375 115.33125 70.33125 116.25313Q70.03438 117.175 69.40938 117.69063Q68.8 118.19063 67.84688 118.19063Q66.6125 118.19063 65.89375 117.3Q65.05 116.2375 65.05 113.81563ZM66.12813 113.81563Q66.12813 115.925 66.62813 116.62813Q67.12813 117.33125 67.84688 117.33125Q68.58125 117.33125 69.06563 116.62813Q69.56563 115.925 69.56563 113.81563Q69.56563 111.69063 69.06563 111.00313Q68.58125 110.3 67.83125 110.3Q67.1125 110.3 66.675 110.90938Q66.12813 111.69063 66.12813 113.81563Z" fill-rule="nonzero"/><path fill="#000000" d="M59.675 51.260418Q59.01875 51.010418 58.690624 50.572918Q58.378124 50.119793 58.378124 49.510418Q58.378124 48.572918 59.05 47.932293Q59.7375 47.291668 60.846874 47.291668Q61.971874 47.291668 62.659374 47.947918Q63.346874 48.604168 63.346874 49.541668Q63.346874 50.135418 63.034374 50.572918Q62.721874 51.010418 62.08125 51.260418Q62.878124 51.510418 63.284374 52.088543Q63.690624 52.666668 63.690624 53.463543Q63.690624 54.557293 62.909374 55.307293Q62.14375 56.057293 60.8625 56.057293Q59.596874 56.057293 58.815624 55.307293Q58.034374 54.557293 58.034374 53.432293Q58.034374 52.588543 58.45625 52.026043Q58.89375 51.463543 59.675 51.260418ZM59.45625 49.463543Q59.45625 50.072918 59.846874 50.463543Q60.253124 50.854168 60.878124 50.854168Q61.4875 50.854168 61.878124 50.479168Q62.26875 50.088543 62.26875 49.526043Q62.26875 48.947918 61.8625 48.557293Q61.45625 48.151043 60.8625 48.151043Q60.253124 48.151043 59.846874 48.541668Q59.45625 48.932293 59.45625 49.463543ZM59.128124 53.432293Q59.128124 53.885418 59.33125 54.307293Q59.55 54.729168 59.971874 54.963543Q60.39375 55.197918 60.878124 55.197918Q61.628124 55.197918 62.1125 54.713543Q62.6125 54.229168 62.6125 53.479168Q62.6125 52.713543 62.1125 52.213543Q61.6125 51.713543 60.846874 51.713543Q60.096874 51.713543 59.6125 52.213543Q59.128124 52.697918 59.128124 53.432293ZM65.05 51.682293Q65.05 50.151043 65.3625 49.229168Q65.675 48.291668 66.28438 47.791668Q66.90938 47.291668 67.84688 47.291668Q68.53438 47.291668 69.05 47.572918Q69.58125 47.854168 69.925 48.385418Q70.26875 48.901043 70.45625 49.651043Q70.64375 50.401043 70.64375 51.682293Q70.64375 53.197918 70.33125 54.119793Q70.03438 55.041668 69.40938 55.557293Q68.8 56.057293 67.84688 56.057293Q66.6125 56.057293 65.89375 55.166668Q65.05 54.104168 65.05 51.682293ZM66.12813 51.682293Q66.12813 53.791668 66.62813 54.494793Q67.12813 55.197918 67.84688 55.197918Q68.58125 55.197918 69.06563 54.494793Q69.56563 53.791668 69.56563 51.682293Q69.56563 49.557293 69.06563 48.869793Q68.58125 48.166668 67.83125 48.166668Q67.1125 48.166668 66.675 48.776043Q66.12813 49.557293 66.12813 51.682293Z" fill-rule="nonzero"/><path fill="#000000" d="M128.23553 317.45L128.23553 309.8719L125.40742 309.8719L125.40742 308.85626L132.21991 308.85626L132.21991 309.8719L129.37616 309.8719L129.37616 317.45L128.23553 317.45ZM132.90741 317.45L132.90741 311.23126L133.86053 311.23126L133.86053 312.16876Q134.21991 311.5125 134.51678 311.3094Q134.82928 311.09064 135.20428 311.09064Q135.73553 311.09064 136.28241 311.41876L135.92303 312.40314Q135.53241 312.16876 135.15741 312.16876Q134.79803 312.16876 134.51678 312.3875Q134.25116 312.59064 134.14178 312.96564Q133.95428 313.52814 133.95428 314.1844L133.95428 317.45L132.90741 317.45ZM136.92303 310.075L136.92303 308.85626L137.98553 308.85626L137.98553 310.075L136.92303 310.075ZM136.92303 317.45L136.92303 311.23126L137.98553 311.23126L137.98553 317.45L136.92303 317.45ZM141.64178 317.45L139.28241 311.23126L140.39178 311.23126L141.73553 314.95Q141.93866 315.5594 142.12616 316.2Q142.26678 315.71564 142.51678 315.02814L143.90741 311.23126L144.98553 311.23126L142.62616 317.45L141.64178 317.45ZM144.92303 310.075L144.92303 308.85626L145.98553 308.85626L145.98553 310.075L144.92303 310.075ZM144.92303 317.45L144.92303 311.23126L145.98553 311.23126L145.98553 317.45L144.92303 317.45ZM151.98553 316.6844Q151.39178 317.1844 150.84491 317.3875Q150.31366 317.59064 149.68866 317.59064Q148.65741 317.59064 148.11053 317.09064Q147.56366 316.59064 147.56366 315.8094Q147.56366 315.35626 147.76678 314.98126Q147.96991 314.59064 148.31366 314.3719Q148.65741 314.1375 149.07928 314.02814Q149.37616 313.9344 150.01678 313.85626Q151.28241 313.71564 151.89178 313.4969Q151.89178 313.27814 151.89178 313.23126Q151.89178 312.575 151.59491 312.3094Q151.18866 311.96564 150.39178 311.96564Q149.65741 311.96564 149.29803 312.23126Q148.93866 312.48126 148.76678 313.1375L147.73553 312.9969Q147.87616 312.34064 148.20428 311.9344Q148.53241 311.52814 149.14178 311.3094Q149.75116 311.09064 150.54803 311.09064Q151.34491 311.09064 151.84491 311.27814Q152.34491 311.46564 152.57928 311.7469Q152.81366 312.02814 152.90741 312.46564Q152.95428 312.73126 152.95428 313.4344L152.95428 314.84064Q152.95428 316.3094 153.01678 316.7Q153.09491 317.09064 153.29803 317.45L152.18866 317.45Q152.03241 317.1219 151.98553 316.6844ZM151.89178 314.325Q151.31366 314.5594 150.17303 314.73126Q149.51678 314.825 149.25116 314.95Q148.98553 315.0594 148.82928 315.27814Q148.68866 315.4969 148.68866 315.77814Q148.68866 316.2 149.00116 316.48126Q149.32928 316.7625 149.93866 316.7625Q150.54803 316.7625 151.01678 316.4969Q151.50116 316.23126 151.71991 315.7625Q151.89178 315.40314 151.89178 314.71564L151.89178 314.325ZM154.89178 317.45L154.89178 308.85626L155.95428 308.85626L155.95428 317.45L154.89178 317.45Z" fill-rule="nonzero"/><path fill="#000000" d="M218.85995 314.6844L219.92245 314.59064Q220.00058 315.2469 220.28183 315.65314Q220.56308 316.0594 221.1412 316.325Q221.73495 316.575 222.46933 316.575Q223.10995 316.575 223.60995 316.3875Q224.10995 316.1844 224.34433 315.85626Q224.59433 315.5125 224.59433 315.1219Q224.59433 314.71564 224.35995 314.41876Q224.12558 314.10626 223.59433 313.90314Q223.23495 313.7625 222.04745 313.48126Q220.87558 313.2 220.40683 312.95Q219.78183 312.6219 219.48495 312.15314Q219.18808 311.66876 219.18808 311.075Q219.18808 310.4344 219.54745 309.8719Q219.92245 309.29376 220.62558 309.0125Q221.34433 308.71564 222.2037 308.71564Q223.15683 308.71564 223.8912 309.02814Q224.62558 309.325 225.0162 309.9344Q225.40683 310.52814 225.43808 311.27814L224.34433 311.35626Q224.25058 310.54376 223.73495 310.1375Q223.23495 309.71564 222.25058 309.71564Q221.21933 309.71564 220.75058 310.09064Q220.28183 310.46564 220.28183 310.9969Q220.28183 311.46564 220.60995 311.7625Q220.93808 312.0594 222.31308 312.3719Q223.7037 312.6844 224.21933 312.91876Q224.96933 313.27814 225.3287 313.8094Q225.68808 314.325 225.68808 315.02814Q225.68808 315.71564 225.29745 316.325Q224.90683 316.91876 224.17245 317.2625Q223.43808 317.59064 222.5162 317.59064Q221.34433 317.59064 220.54745 317.2625Q219.7662 316.91876 219.31308 316.23126Q218.87558 315.54376 218.85995 314.6844ZM231.35995 315.45L232.4537 315.575Q232.2037 316.52814 231.50058 317.0594Q230.79745 317.59064 229.71933 317.59064Q228.35995 317.59064 227.54745 316.7469Q226.75058 315.90314 226.75058 314.3875Q226.75058 312.825 227.56308 311.96564Q228.37558 311.09064 229.65683 311.09064Q230.90683 311.09064 231.68808 311.9344Q232.48495 312.77814 232.48495 314.325Q232.48495 314.41876 232.48495 314.60626L227.84433 314.60626Q227.90683 315.6375 228.42245 316.1844Q228.93808 316.71564 229.71933 316.71564Q230.29745 316.71564 230.7037 316.41876Q231.12558 316.10626 231.35995 315.45ZM227.90683 313.7469L231.37558 313.7469Q231.31308 312.95 230.98495 312.5594Q230.46933 311.95 229.67245 311.95Q228.93808 311.95 228.43808 312.4344Q227.9537 312.91876 227.90683 313.7469ZM234.0787 317.45L234.0787 308.85626L235.1412 308.85626L235.1412 317.45L234.0787 317.45ZM241.35995 315.45L242.4537 315.575Q242.2037 316.52814 241.50058 317.0594Q240.79745 317.59064 239.71933 317.59064Q238.35995 317.59064 237.54745 316.7469Q236.75058 315.90314 236.75058 314.3875Q236.75058 312.825 237.56308 311.96564Q238.37558 311.09064 239.65683 311.09064Q240.90683 311.09064 241.68808 311.9344Q242.48495 312.77814 242.48495 314.325Q242.48495 314.41876 242.48495 314.60626L237.84433 314.60626Q237.90683 315.6375 238.42245 316.1844Q238.93808 316.71564 239.71933 316.71564Q240.29745 316.71564 240.7037 316.41876Q241.12558 316.10626 241.35995 315.45ZM237.90683 313.7469L241.37558 313.7469Q241.31308 312.95 240.98495 312.5594Q240.46933 311.95 239.67245 311.95Q238.93808 311.95 238.43808 312.4344Q237.9537 312.91876 237.90683 313.7469ZM248.17245 315.16876L249.2037 315.3094Q249.03183 316.3719 248.3287 316.98126Q247.62558 317.59064 246.60995 317.59064Q245.3287 317.59064 244.54745 316.7625Q243.78183 315.91876 243.78183 314.35626Q243.78183 313.35626 244.10995 312.60626Q244.4537 311.84064 245.12558 311.46564Q245.81308 311.09064 246.62558 311.09064Q247.62558 311.09064 248.2662 311.60626Q248.92245 312.10626 249.10995 313.0594L248.0787 313.21564Q247.93808 312.59064 247.56308 312.27814Q247.18808 311.95 246.65683 311.95Q245.85995 311.95 245.35995 312.52814Q244.85995 313.09064 244.85995 314.325Q244.85995 315.59064 245.34433 316.15314Q245.8287 316.71564 246.59433 316.71564Q247.21933 316.71564 247.62558 316.34064Q248.04745 315.96564 248.17245 315.16876ZM252.40683 316.5125L252.56308 317.4344Q252.10995 317.52814 251.7662 317.52814Q251.18808 317.52814 250.87558 317.35626Q250.56308 317.16876 250.42245 316.8719Q250.29745 316.575 250.29745 315.6219L250.29745 312.04376L249.53183 312.04376L249.53183 311.23126L250.29745 311.23126L250.29745 309.6844L251.34433 309.0594L251.34433 311.23126L252.40683 311.23126L252.40683 312.04376L251.34433 312.04376L251.34433 315.6844Q251.34433 316.1375 251.3912 316.2625Q251.4537 316.3875 251.5787 316.46564Q251.7037 316.54376 251.93808 316.54376Q252.12558 316.54376 252.40683 316.5125Z" fill-rule="nonzero"/><path fill="#000000" d="M320.89062 317.45L320.89062 308.85626L322.60938 308.85626L324.64062 314.9344Q324.92188 315.79376 325.04688 316.21564Q325.1875 315.7469 325.5 314.84064L327.5625 308.85626L329.09375 308.85626L329.09375 317.45L328.0 317.45L328.0 310.2625L325.5 317.45L324.46875 317.45L321.98438 310.1375L321.98438 317.45L320.89062 317.45ZM329.79688 310.075L329.79688 308.85626L330.85938 308.85626L330.85938 310.075L329.79688 310.075ZM329.79688 317.45L329.79688 311.23126L330.85938 311.23126L330.85938 317.45L329.79688 317.45ZM332.79688 317.45L332.79688 311.23126L333.73438 311.23126L333.73438 312.10626Q334.42188 311.09064 335.71875 311.09064Q336.28125 311.09064 336.75 311.29376Q337.23438 311.4969 337.46875 311.825Q337.70312 312.15314 337.79688 312.59064Q337.84375 312.8875 337.84375 313.6219L337.84375 317.45L336.79688 317.45L336.79688 313.66876Q336.79688 313.0125 336.67188 312.7Q336.54688 312.3875 336.23438 312.2Q335.92188 311.9969 335.5 311.9969Q334.82812 311.9969 334.32812 312.4344Q333.84375 312.85626 333.84375 314.04376L333.84375 317.45L332.79688 317.45Z" fill-rule="nonzero"/><path fill="#000000" d="M413.24942 314.4344L414.37442 314.73126Q414.01505 316.1219 413.09317 316.85626Q412.1713 317.59064 410.82755 317.59064Q409.43692 317.59064 408.56192 317.02814Q407.68692 316.46564 407.2338 315.40314Q406.78067 314.325 406.78067 313.09064Q406.78067 311.7469 407.2963 310.7469Q407.81192 309.7469 408.74942 309.23126Q409.70255 308.71564 410.84317 308.71564Q412.12442 308.71564 412.99942 309.3719Q413.89005 310.02814 414.2338 311.21564L413.1088 311.48126Q412.81192 310.54376 412.2338 310.1219Q411.6713 309.6844 410.81192 309.6844Q409.82755 309.6844 409.15567 310.16876Q408.49942 310.6375 408.21817 311.4344Q407.95255 312.23126 407.95255 313.09064Q407.95255 314.1844 408.26505 314.9969Q408.59317 315.8094 409.26505 316.21564Q409.93692 316.6219 410.7338 316.6219Q411.68692 316.6219 412.34317 316.075Q413.01505 315.52814 413.24942 314.4344ZM420.0463 316.6844Q419.45255 317.1844 418.90567 317.3875Q418.37442 317.59064 417.74942 317.59064Q416.71817 317.59064 416.1713 317.09064Q415.62442 316.59064 415.62442 315.8094Q415.62442 315.35626 415.82755 314.98126Q416.03067 314.59064 416.37442 314.3719Q416.71817 314.1375 417.14005 314.02814Q417.43692 313.9344 418.07755 313.85626Q419.34317 313.71564 419.95255 313.4969Q419.95255 313.27814 419.95255 313.23126Q419.95255 312.575 419.65567 312.3094Q419.24942 311.96564 418.45255 311.96564Q417.71817 311.96564 417.3588 312.23126Q416.99942 312.48126 416.82755 313.1375L415.7963 312.9969Q415.93692 312.34064 416.26505 311.9344Q416.59317 311.52814 417.20255 311.3094Q417.81192 311.09064 418.6088 311.09064Q419.40567 311.09064 419.90567 311.27814Q420.40567 311.46564 420.64005 311.7469Q420.87442 312.02814 420.96817 312.46564Q421.01505 312.73126 421.01505 313.4344L421.01505 314.84064Q421.01505 316.3094 421.07755 316.7Q421.15567 317.09064 421.3588 317.45L420.24942 317.45Q420.09317 317.1219 420.0463 316.6844ZM419.95255 314.325Q419.37442 314.5594 418.2338 314.73126Q417.57755 314.825 417.31192 314.95Q417.0463 315.0594 416.89005 315.27814Q416.74942 315.4969 416.74942 315.77814Q416.74942 316.2 417.06192 316.48126Q417.39005 316.7625 417.99942 316.7625Q418.6088 316.7625 419.07755 316.4969Q419.56192 316.23126 419.78067 315.7625Q419.95255 315.40314 419.95255 314.71564L419.95255 314.325ZM422.95255 317.45L422.95255 308.85626L424.01505 308.85626L424.01505 317.45L422.95255 317.45ZM425.95255 317.45L425.95255 308.85626L427.01505 308.85626L427.01505 317.45L425.95255 317.45ZM432.31192 317.45L432.31192 308.85626L433.43692 308.85626L433.43692 317.45L432.31192 317.45ZM439.01505 317.45L439.01505 316.66876Q438.4213 317.59064 437.28067 317.59064Q436.53067 317.59064 435.90567 317.1844Q435.28067 316.7625 434.93692 316.02814Q434.59317 315.29376 434.59317 314.34064Q434.59317 313.41876 434.90567 312.65314Q435.21817 311.8875 435.84317 311.4969Q436.46817 311.09064 437.2338 311.09064Q437.7963 311.09064 438.2338 311.325Q438.6713 311.5594 438.95255 311.9344L438.95255 308.85626L439.99942 308.85626L439.99942 317.45L439.01505 317.45ZM435.68692 314.34064Q435.68692 315.54376 436.18692 316.1375Q436.68692 316.71564 437.37442 316.71564Q438.06192 316.71564 438.5463 316.15314Q439.03067 315.59064 439.03067 314.4344Q439.03067 313.15314 438.53067 312.5594Q438.0463 311.96564 437.32755 311.96564Q436.62442 311.96564 436.15567 312.54376Q435.68692 313.10626 435.68692 314.34064Z" fill-rule="nonzero"/><path fill="#000000" d="M493.48322 317.45L493.48322 309.8719L490.6551 309.8719L490.6551 308.85626L497.4676 308.85626L497.4676 309.8719L494.62384 309.8719L494.62384 317.45L493.48322 317.45ZM498.1551 317.45L498.1551 311.23126L499.10822 311.23126L499.10822 312.16876Q499.4676 311.5125 499.76447 311.3094Q500.07697 311.09064 500.45197 311.09064Q500.98322 311.09064 501.5301 311.41876L501.17072 312.40314Q500.7801 312.16876 500.4051 312.16876Q500.04572 312.16876 499.76447 312.3875Q499.49884 312.59064 499.38947 312.96564Q499.20197 313.52814 499.20197 314.1844L499.20197 317.45L498.1551 317.45ZM502.17072 310.075L502.17072 308.85626L503.23322 308.85626L503.23322 310.075L502.17072 310.075ZM502.17072 317.45L502.17072 311.23126L503.23322 311.23126L503.23322 317.45L502.17072 317.45ZM505.17072 319.84064L505.17072 311.23126L506.12384 311.23126L506.12384 312.02814Q506.4676 311.5594 506.88947 311.325Q507.32697 311.09064 507.93634 311.09064Q508.73322 311.09064 509.3426 311.4969Q509.95197 311.90314 510.24884 312.65314Q510.56134 313.40314 510.56134 314.29376Q510.56134 315.2469 510.2176 316.0125Q509.88947 316.77814 509.23322 317.1844Q508.57697 317.59064 507.85822 317.59064Q507.32697 317.59064 506.9051 317.3719Q506.48322 317.1375 506.2176 316.8094L506.2176 319.84064L505.17072 319.84064ZM506.12384 314.3719Q506.12384 315.575 506.60822 316.15314Q507.0926 316.71564 507.7801 316.71564Q508.48322 316.71564 508.98322 316.1219Q509.48322 315.52814 509.48322 314.27814Q509.48322 313.09064 508.99884 312.5125Q508.51447 311.91876 507.82697 311.91876Q507.1551 311.91876 506.63947 312.54376Q506.12384 313.16876 506.12384 314.3719ZM512.13947 317.45L512.13947 308.85626L513.20197 308.85626L513.20197 317.45L512.13947 317.45ZM519.4207 315.45L520.51447 315.575Q520.26447 316.52814 519.56134 317.0594Q518.8582 317.59064 517.7801 317.59064Q516.4207 317.59064 515.6082 316.7469Q514.81134 315.90314 514.81134 314.3875Q514.81134 312.825 515.62384 311.96564Q516.43634 311.09064 517.7176 311.09064Q518.9676 311.09064 519.74884 311.9344Q520.5457 312.77814 520.5457 314.325Q520.5457 314.41876 520.5457 314.60626L515.9051 314.60626Q515.9676 315.6375 516.4832 316.1844Q516.99884 316.71564 517.7801 316.71564Q518.3582 316.71564 518.76447 316.41876Q519.18634 316.10626 519.4207 315.45ZM515.9676 313.7469L519.43634 313.7469Q519.37384 312.95 519.0457 312.5594Q518.5301 311.95 517.7332 311.95Q516.99884 311.95 516.49884 312.4344Q516.01447 312.91876 515.9676 313.7469ZM524.3582 317.45L527.6551 308.85626L528.87384 308.85626L532.38947 317.45L531.1082 317.45L530.0926 314.84064L526.51447 314.84064L525.56134 317.45L524.3582 317.45ZM526.8426 313.91876L529.74884 313.91876L528.8582 311.54376Q528.43634 310.46564 528.24884 309.7625Q528.07697 310.59064 527.7801 311.40314L526.8426 313.91876ZM536.20197 317.45L536.20197 316.66876Q535.6082 317.59064 534.4676 317.59064Q533.7176 317.59064 533.0926 317.1844Q532.4676 316.7625 532.12384 316.02814Q531.7801 315.29376 531.7801 314.34064Q531.7801 313.41876 532.0926 312.65314Q532.4051 311.8875 533.0301 311.4969Q533.6551 311.09064 534.4207 311.09064Q534.9832 311.09064 535.4207 311.325Q535.8582 311.5594 536.13947 311.9344L536.13947 308.85626L537.18634 308.85626L537.18634 317.45L536.20197 317.45ZM532.87384 314.34064Q532.87384 315.54376 533.37384 316.1375Q533.87384 316.71564 534.56134 316.71564Q535.24884 316.71564 535.7332 316.15314Q536.2176 315.59064 536.2176 314.4344Q536.2176 313.15314 535.7176 312.5594Q535.2332 311.96564 534.51447 311.96564Q533.81134 311.96564 533.3426 312.54376Q532.87384 313.10626 532.87384 314.34064ZM543.20197 317.45L543.20197 316.66876Q542.6082 317.59064 541.4676 317.59064Q540.7176 317.59064 540.0926 317.1844Q539.4676 316.7625 539.12384 316.02814Q538.7801 315.29376 538.7801 314.34064Q538.7801 313.41876 539.0926 312.65314Q539.4051 311.8875 540.0301 311.4969Q540.6551 311.09064 541.4207 311.09064Q541.9832 311.09064 542.4207 311.325Q542.8582 311.5594 543.13947 311.9344L543.13947 308.85626L544.18634 308.85626L544.18634 317.45L543.20197 317.45ZM539.87384 314.34064Q539.87384 315.54376 540.37384 316.1375Q540.87384 316.71564 541.56134 316.71564Q542.24884 316.71564 542.7332 316.15314Q543.2176 315.59064 543.2176 314.4344Q543.2176 313.15314 542.7176 312.5594Q542.2332 311.96564 541.51447 311.96564Q540.81134 311.96564 540.3426 312.54376Q539.87384 313.10626 539.87384 314.34064Z" fill-rule="nonzero"/><path fill="#4285f4" d="M218.5 20.55C218.5 19.997715 218.94771 19.55 219.5 19.55L229.5 19.55C230.05229 19.55 230.5 19.997715 230.5 20.55L230.5 30.55C230.5 31.102285 230.05229 31.55 229.5 31.55L219.5 31.55C218.94771 31.55 218.5 31.102285 218.5 30.55Z" fill-rule="nonzero"/><path fill="#1a1a1a" d="M238.48438 29.55L241.78125 20.95625L243.0 20.95625L246.51562 29.55L245.23438 29.55L244.21875 26.940624L240.64062 26.940624L239.6875 29.55L238.48438 29.55ZM240.96875 26.01875L243.875 26.01875L242.98438 23.64375Q242.5625 22.565624 242.375 21.8625Q242.20312 22.690624 241.90625 23.503124L240.96875 26.01875ZM245.875 27.690624L246.90625 27.534374Q247.0 28.159374 247.39062 28.4875Q247.79688 28.815624 248.53125 28.815624Q249.25 28.815624 249.59375 28.534374Q249.95312 28.2375 249.95312 27.83125Q249.95312 27.471874 249.64062 27.26875Q249.42188 27.128124 248.5625 26.909374Q247.40625 26.6125 246.95312 26.409374Q246.51562 26.190624 246.28125 25.815624Q246.04688 25.440624 246.04688 24.971874Q246.04688 24.565624 246.23438 24.20625Q246.42188 23.846874 246.75 23.6125Q247.0 23.440624 247.42188 23.315624Q247.84375 23.190624 248.34375 23.190624Q249.0625 23.190624 249.60938 23.409374Q250.17188 23.6125 250.4375 23.971874Q250.70312 24.33125 250.79688 24.925L249.76562 25.065624Q249.70312 24.596874 249.35938 24.33125Q249.03125 24.05 248.40625 24.05Q247.6875 24.05 247.375 24.3Q247.0625 24.534374 247.0625 24.8625Q247.0625 25.065624 247.1875 25.221874Q247.32812 25.39375 247.59375 25.503124Q247.75 25.565624 248.53125 25.76875Q249.65625 26.08125 250.09375 26.26875Q250.53125 26.45625 250.78125 26.815624Q251.03125 27.175 251.03125 27.721874Q251.03125 28.253124 250.71875 28.721874Q250.42188 29.175 249.84375 29.440624Q249.26562 29.690624 248.53125 29.690624Q247.3125 29.690624 246.67188 29.190624Q246.04688 28.675 245.875 27.690624ZM252.875 27.690624L253.90625 27.534374Q254.0 28.159374 254.39062 28.4875Q254.79688 28.815624 255.53125 28.815624Q256.25 28.815624 256.59375 28.534374Q256.95312 28.2375 256.95312 27.83125Q256.95312 27.471874 256.64062 27.26875Q256.42188 27.128124 255.5625 26.909374Q254.40625 26.6125 253.95312 26.409374Q253.51562 26.190624 253.28125 25.815624Q253.04688 25.440624 253.04688 24.971874Q253.04688 24.565624 253.23438 24.20625Q253.42188 23.846874 253.75 23.6125Q254.0 23.440624 254.42188 23.315624Q254.84375 23.190624 255.34375 23.190624Q256.0625 23.190624 256.60938 23.409374Q257.17188 23.6125 257.4375 23.971874Q257.70312 24.33125 257.79688 24.925L256.76562 25.065624Q256.70312 24.596874 256.35938 24.33125Q256.03125 24.05 255.40625 24.05Q254.6875 24.05 254.375 24.3Q254.0625 24.534374 254.0625 24.8625Q254.0625 25.065624 254.1875 25.221874Q254.32812 25.39375 254.59375 25.503124Q254.75 25.565624 255.53125 25.76875Q256.65625 26.08125 257.09375 26.26875Q257.53125 26.45625 257.78125 26.815624Q258.03125 27.175 258.03125 27.721874Q258.03125 28.253124 257.71875 28.721874Q257.42188 29.175 256.84375 29.440624Q256.26562 29.690624 255.53125 29.690624Q254.3125 29.690624 253.67188 29.190624Q253.04688 28.675 252.875 27.690624ZM264.54688 27.55L265.64062 27.675Q265.39062 28.628124 264.6875 29.159374Q263.98438 29.690624 262.90625 29.690624Q261.54688 29.690624 260.73438 28.846874Q259.9375 28.003124 259.9375 26.4875Q259.9375 24.925 260.75 24.065624Q261.5625 23.190624 262.84375 23.190624Q264.09375 23.190624 264.875 24.034374Q265.67188 24.878124 265.67188 26.425Q265.67188 26.51875 265.67188 26.70625L261.03125 26.70625Q261.09375 27.7375 261.60938 28.284374Q262.125 28.815624 262.90625 28.815624Q263.48438 28.815624 263.89062 28.51875Q264.3125 28.20625 264.54688 27.55ZM261.09375 25.846874L264.5625 25.846874Q264.5 25.05 264.17188 24.659374Q263.65625 24.05 262.85938 24.05Q262.125 24.05 261.625 24.534374Q261.14062 25.01875 261.09375 25.846874ZM267.29688 29.55L267.29688 23.33125L268.23438 23.33125L268.23438 24.20625Q268.53125 23.7375 269.01562 23.471874Q269.5 23.190624 270.125 23.190624Q270.8125 23.190624 271.25 23.471874Q271.70312 23.753124 271.875 24.26875Q272.625 23.190624 273.79688 23.190624Q274.73438 23.190624 275.21875 23.70625Q275.71875 24.20625 275.71875 25.284374L275.71875 29.55L274.67188 29.55L274.67188 25.628124Q274.67188 25.003124 274.5625 24.721874Q274.46875 24.440624 274.20312 24.26875Q273.9375 24.096874 273.5625 24.096874Q272.90625 24.096874 272.46875 24.534374Q272.04688 24.971874 272.04688 25.940624L272.04688 29.55L270.98438 29.55L270.98438 25.503124Q270.98438 24.8 270.71875 24.45625Q270.46875 24.096874 269.89062 24.096874Q269.4375 24.096874 269.0625 24.33125Q268.6875 24.565624 268.51562 25.01875Q268.34375 25.471874 268.34375 26.315624L268.34375 29.55L267.29688 29.55ZM279.26562 29.55L278.28125 29.55L278.28125 20.95625L279.34375 20.95625L279.34375 24.01875Q280.01562 23.190624 281.04688 23.190624Q281.625 23.190624 282.125 23.425Q282.64062 23.64375 282.96875 24.065624Q283.3125 24.4875 283.5 25.08125Q283.6875 25.675 283.6875 26.346874Q283.6875 27.940624 282.89062 28.815624Q282.09375 29.690624 281.0 29.690624Q279.89062 29.690624 279.26562 28.76875L279.26562 29.55ZM279.25 26.39375Q279.25 27.503124 279.5625 28.003124Q280.0625 28.815624 280.90625 28.815624Q281.59375 28.815624 282.09375 28.221874Q282.60938 27.628124 282.60938 26.425Q282.60938 25.20625 282.125 24.628124Q281.64062 24.05 280.95312 24.05Q280.26562 24.05 279.75 24.659374Q279.25 25.253124 279.25 26.39375ZM285.26562 29.55L285.26562 20.95625L286.32812 20.95625L286.32812 29.55L285.26562 29.55ZM288.25 31.940624L288.125 30.95625Q288.46875 31.05 288.73438 31.05Q289.07812 31.05 289.28125 30.925Q289.5 30.815624 289.64062 30.6125Q289.73438 30.440624 289.96875 29.815624Q289.98438 29.7375 290.0625 29.565624L287.6875 23.33125L288.82812 23.33125L290.125 26.925Q290.375 27.6125 290.57812 28.378124Q290.76562 27.64375 291.01562 26.95625L292.34375 23.33125L293.39062 23.33125L291.03125 29.659374Q290.64062 30.675 290.4375 31.065624Q290.15625 31.596874 289.78125 31.83125Q289.42188 32.08125 288.92188 32.08125Q288.625 32.08125 288.25 31.940624Z" fill-rule="nonzero"/><path fill="#ea4335" d="M308.5 20.55C308.5 19.997715 308.94772 19.55 309.5 19.55L319.5 19.55C320.05228 19.55 320.5 19.997715 320.5 20.55L320.5 30.55C320.5 31.102285 320.05228 31.55 319.5 31.55L309.5 31.55C308.94772 31.55 308.5 31.102285 308.5 30.55Z" fill-rule="nonzero"/><path fill="#1a1a1a" d="M329.48438 29.55L329.48438 20.95625L335.28125 20.95625L335.28125 21.971874L330.625 21.971874L330.625 24.628124L334.65625 24.628124L334.65625 25.64375L330.625 25.64375L330.625 29.55L329.48438 29.55ZM336.28125 29.55L336.28125 23.33125L337.23438 23.33125L337.23438 24.26875Q337.59375 23.6125 337.89062 23.409374Q338.20312 23.190624 338.57812 23.190624Q339.10938 23.190624 339.65625 23.51875L339.29688 24.503124Q338.90625 24.26875 338.53125 24.26875Q338.17188 24.26875 337.89062 24.4875Q337.625 24.690624 337.51562 25.065624Q337.32812 25.628124 337.32812 26.284374L337.32812 29.55L336.28125 29.55ZM339.90625 26.440624Q339.90625 24.70625 340.85938 23.878124Q341.65625 23.190624 342.8125 23.190624Q344.09375 23.190624 344.90625 24.034374Q345.73438 24.8625 345.73438 26.346874Q345.73438 27.55 345.375 28.2375Q345.01562 28.925 344.3125 29.315624Q343.625 29.690624 342.8125 29.690624Q341.51562 29.690624 340.70312 28.8625Q339.90625 28.01875 339.90625 26.440624ZM340.98438 26.440624Q340.98438 27.628124 341.5 28.221874Q342.03125 28.815624 342.8125 28.815624Q343.60938 28.815624 344.125 28.221874Q344.64062 27.628124 344.64062 26.409374Q344.64062 25.253124 344.10938 24.659374Q343.59375 24.065624 342.8125 24.065624Q342.03125 24.065624 341.5 24.659374Q340.98438 25.2375 340.98438 26.440624ZM347.29688 29.55L347.29688 23.33125L348.23438 23.33125L348.23438 24.20625Q348.92188 23.190624 350.21875 23.190624Q350.78125 23.190624 351.25 23.39375Q351.73438 23.596874 351.96875 23.925Q352.20312 24.253124 352.29688 24.690624Q352.34375 24.9875 352.34375 25.721874L352.34375 29.55L351.29688 29.55L351.29688 25.76875Q351.29688 25.1125 351.17188 24.8Q351.04688 24.4875 350.73438 24.3Q350.42188 24.096874 350.0 24.096874Q349.32812 24.096874 348.82812 24.534374Q348.34375 24.95625 348.34375 26.14375L348.34375 29.55L347.29688 29.55ZM356.59375 28.6125L356.75 29.534374Q356.29688 29.628124 355.95312 29.628124Q355.375 29.628124 355.0625 29.45625Q354.75 29.26875 354.60938 28.971874Q354.48438 28.675 354.48438 27.721874L354.48438 24.14375L353.71875 24.14375L353.71875 23.33125L354.48438 23.33125L354.48438 21.784374L355.53125 21.159374L355.53125 23.33125L356.59375 23.33125L356.59375 24.14375L355.53125 24.14375L355.53125 27.784374Q355.53125 28.2375 355.57812 28.3625Q355.64062 28.4875 355.76562 28.565624Q355.89062 28.64375 356.125 28.64375Q356.3125 28.64375 356.59375 28.6125ZM360.45312 29.55L360.45312 20.95625L366.65625 20.95625L366.65625 21.971874L361.59375 21.971874L361.59375 24.596874L366.34375 24.596874L366.34375 25.6125L361.59375 25.6125L361.59375 28.534374L366.85938 28.534374L366.85938 29.55L360.45312 29.55ZM368.29688 29.55L368.29688 23.33125L369.23438 23.33125L369.23438 24.20625Q369.92188 23.190624 371.21875 23.190624Q371.78125 23.190624 372.25 23.39375Q372.73438 23.596874 372.96875 23.925Q373.20312 24.253124 373.29688 24.690624Q373.34375 24.9875 373.34375 25.721874L373.34375 29.55L372.29688 29.55L372.29688 25.76875Q372.29688 25.1125 372.17188 24.8Q372.04688 24.4875 371.73438 24.3Q371.42188 24.096874 371.0 24.096874Q370.32812 24.096874 369.82812 24.534374Q369.34375 24.95625 369.34375 26.14375L369.34375 29.55L368.29688 29.55ZM379.32812 29.55L379.32812 28.76875Q378.73438 29.690624 377.59375 29.690624Q376.84375 29.690624 376.21875 29.284374Q375.59375 28.8625 375.25 28.128124Q374.90625 27.39375 374.90625 26.440624Q374.90625 25.51875 375.21875 24.753124Q375.53125 23.9875 376.15625 23.596874Q376.78125 23.190624 377.54688 23.190624Q378.10938 23.190624 378.54688 23.425Q378.98438 23.659374 379.26562 24.034374L379.26562 20.95625L380.3125 20.95625L380.3125 29.55L379.32812 29.55ZM376.0 26.440624Q376.0 27.64375 376.5 28.2375Q377.0 28.815624 377.6875 28.815624Q378.375 28.815624 378.85938 28.253124Q379.34375 27.690624 379.34375 26.534374Q379.34375 25.253124 378.84375 24.659374Q378.35938 24.065624 377.64062 24.065624Q376.9375 24.065624 376.46875 24.64375Q376.0 25.20625 376.0 26.440624Z" fill-rule="nonzero"/></svg>