<?xml version="1.0" encoding="UTF-8" standalone="no"?><!DOCTYPE svg PUBLIC "-//W3C//DTD SVG 1.1//EN" "http://www.w3.org/Graphics/SVG/1.1/DTD/svg11.dtd"><!-- Generated by graphviz version 2.40.1 (20161225.0304)
 --><!-- Title: %0 Pages: 1 --><svg xmlns="http://www.w3.org/2000/svg" xmlns:xlink="http://www.w3.org/1999/xlink" width="134pt" height="332pt" viewBox="0.00 0.00 134.00 332.00">
<g id="graph0" class="graph" transform="scale(1 1) rotate(0) translate(4 328)">
<title>%0</title>
<polygon fill="#ffffff" stroke="transparent" points="-4,4 -4,-328 130,-328 130,4 -4,4"/>
<!-- foo -->
<g id="node1" class="node">
<title>foo</title>
<polygon fill="none" stroke="#000000" points="90,-324 36,-324 36,-288 90,-288 90,-324"/>
<text text-anchor="middle" x="63" y="-301.8" font-family="Times,serif" font-size="14.00" fill="#000000">foo</text>
</g>
<!-- foo4 -->
<g id="node2" class="node">
<title>foo4</title>
<polygon fill="none" stroke="#000000" points="54,-252 0,-252 0,-216 54,-216 54,-252"/>
<text text-anchor="middle" x="27" y="-229.8" font-family="Times,serif" font-size="14.00" fill="#000000">foo4</text>
</g>
<!-- foo&#45;&gt;foo4 -->
<g id="edge1" class="edge">
<title>foo-&gt;foo4</title>
<path fill="none" stroke="#000000" d="M53.9157,-287.8314C49.9385,-279.8771 45.1845,-270.369 40.7861,-261.5723"/>
<polygon fill="#000000" stroke="#000000" points="43.8093,-259.7923 36.2066,-252.4133 37.5483,-262.9228 43.8093,-259.7923"/>
</g>
<!-- foo5 -->
<g id="node7" class="node">
<title>foo5</title>
<polygon fill="none" stroke="#000000" points="126,-252 72,-252 72,-216 126,-216 126,-252"/>
<text text-anchor="middle" x="99" y="-229.8" font-family="Times,serif" font-size="14.00" fill="#000000">foo5</text>
</g>
<!-- foo&#45;&gt;foo5 -->
<g id="edge7" class="edge">
<title>foo-&gt;foo5</title>
<path fill="none" stroke="#000000" d="M72.0843,-287.8314C76.0615,-279.8771 80.8155,-270.369 85.2139,-261.5723"/>
<polygon fill="#000000" stroke="#000000" points="88.4517,-262.9228 89.7934,-252.4133 82.1907,-259.7923 88.4517,-262.9228"/>
</g>
<!-- foo2 -->
<g id="node3" class="node">
<title>foo2</title>
<polygon fill="none" stroke="#000000" points="90,-180 36,-180 36,-144 90,-144 90,-180"/>
<text text-anchor="middle" x="63" y="-157.8" font-family="Times,serif" font-size="14.00" fill="#000000">foo2</text>
</g>
<!-- foo4&#45;&gt;foo2 -->
<g id="edge2" class="edge">
<title>foo4-&gt;foo2</title>
<path fill="none" stroke="#000000" d="M36.0843,-215.8314C40.0615,-207.8771 44.8155,-198.369 49.2139,-189.5723"/>
<polygon fill="#000000" stroke="#000000" points="52.4517,-190.9228 53.7934,-180.4133 46.1907,-187.7923 52.4517,-190.9228"/>
</g>
<!-- foo6 -->
<g id="node4" class="node">
<title>foo6</title>
<polygon fill="none" stroke="#000000" points="54,-108 0,-108 0,-72 54,-72 54,-108"/>
<text text-anchor="middle" x="27" y="-85.8" font-family="Times,serif" font-size="14.00" fill="#000000">foo6</text>
</g>
<!-- foo2&#45;&gt;foo6 -->
<g id="edge3" class="edge">
<title>foo2-&gt;foo6</title>
<path fill="none" stroke="#000000" d="M53.9157,-143.8314C49.9385,-135.8771 45.1845,-126.369 40.7861,-117.5723"/>
<polygon fill="#000000" stroke="#000000" points="43.8093,-115.7923 36.2066,-108.4133 37.5483,-118.9228 43.8093,-115.7923"/>
</g>
<!-- foo7 -->
<g id="node6" class="node">
<title>foo7</title>
<polygon fill="none" stroke="#000000" points="126,-108 72,-108 72,-72 126,-72 126,-108"/>
<text text-anchor="middle" x="99" y="-85.8" font-family="Times,serif" font-size="14.00" fill="#000000">foo7</text>
</g>
<!-- foo2&#45;&gt;foo7 -->
<g id="edge5" class="edge">
<title>foo2-&gt;foo7</title>
<path fill="none" stroke="#000000" d="M72.0843,-143.8314C76.0615,-135.8771 80.8155,-126.369 85.2139,-117.5723"/>
<polygon fill="#000000" stroke="#000000" points="88.4517,-118.9228 89.7934,-108.4133 82.1907,-115.7923 88.4517,-118.9228"/>
</g>
<!-- foo3 -->
<g id="node5" class="node">
<title>foo3</title>
<polygon fill="none" stroke="#000000" points="90,-36 36,-36 36,0 90,0 90,-36"/>
<text text-anchor="middle" x="63" y="-13.8" font-family="Times,serif" font-size="14.00" fill="#000000">foo3</text>
</g>
<!-- foo6&#45;&gt;foo3 -->
<g id="edge4" class="edge">
<title>foo6-&gt;foo3</title>
<path fill="none" stroke="#000000" d="M36.0843,-71.8314C40.0615,-63.8771 44.8155,-54.369 49.2139,-45.5723"/>
<polygon fill="#000000" stroke="#000000" points="52.4517,-46.9228 53.7934,-36.4133 46.1907,-43.7923 52.4517,-46.9228"/>
</g>
<!-- foo7&#45;&gt;foo3 -->
<g id="edge6" class="edge">
<title>foo7-&gt;foo3</title>
<path fill="none" stroke="#000000" d="M89.9157,-71.8314C85.9385,-63.8771 81.1845,-54.369 76.7861,-45.5723"/>
<polygon fill="#000000" stroke="#000000" points="79.8093,-43.7923 72.2066,-36.4133 73.5483,-46.9228 79.8093,-43.7923"/>
</g>
<!-- foo5&#45;&gt;foo2 -->
<g id="edge8" class="edge">
<title>foo5-&gt;foo2</title>
<path fill="none" stroke="#000000" d="M89.9157,-215.8314C85.9385,-207.8771 81.1845,-198.369 76.7861,-189.5723"/>
<polygon fill="#000000" stroke="#000000" points="79.8093,-187.7923 72.2066,-180.4133 73.5483,-190.9228 79.8093,-187.7923"/>
</g>
</g>
</svg>